<?xml version="1.0" encoding="UTF-8"?>
<svg xmlns="http://www.w3.org/2000/svg" viewBox="0 0 24 24" fill="#cccccc">
    <path style="line-height:normal;text-indent:0;text-align:start;text-decoration-line:none;text-decoration-style:solid;text-decoration-color:#000;text-transform:none;block-progression:tb;isolation:auto;mix-blend-mode:normal" d="M 6.5722656 1.9296875 L 3.5683594 7.5585938 L 7.5957031 8.9648438 L 4.5898438 12.001953 L 7.5976562 15.019531 L 3.6328125 16.423828 L 6.2011719 22 L 6.8417969 22 L 15.201172 22 L 20.113281 12.001953 L 15.203125 1.9296875 L 6.5722656 1.9296875 z M 7.7714844 3.9296875 L 12.300781 3.9296875 L 10.400391 6 L 6.6679688 6 L 7.7714844 3.9296875 z M 14.322266 4.6875 L 16.572266 9.3046875 L 12.449219 6.7265625 L 14.322266 4.6875 z M 9.6835938 9.7011719 L 10 9.8164062 L 10 14.166016 L 9.6835938 14.279297 L 7.4101562 11.998047 L 9.6835938 9.7011719 z M 12 10.537109 L 16.044922 11.998047 L 12 13.447266 L 12 10.537109 z M 16.574219 14.671875 L 14.324219 19.253906 L 12.441406 17.222656 L 16.574219 14.671875 z M 6.5605469 18 L 10.435547 18 L 12.289062 20 L 7.4824219 20 L 6.5605469 18 z"/>
</svg>